<svg width="24" height="24" viewBox="0 0 24 24" fill="none" xmlns="http://www.w3.org/2000/svg">
<g id="Message" clip-path="url(#clip0_443_246)">
<g id="Layer 2">
<g id="message-circle">
<path id="Vector" d="M19.0696 4.93002C17.4288 3.27852 15.2633 2.25124 12.9463 2.02526C10.6292 1.79929 8.30598 2.3888 6.37702 3.69215C4.44805 4.99551 3.03427 6.93103 2.37939 9.16503C1.72452 11.399 1.86961 13.7915 2.78963 15.93C2.88552 16.1288 2.91698 16.3525 2.87963 16.57L1.99963 20.8C1.96573 20.9622 1.97265 21.1303 2.01978 21.2891C2.06691 21.4479 2.15276 21.5926 2.26963 21.71C2.36543 21.8051 2.4795 21.8799 2.60496 21.9297C2.73042 21.9795 2.86468 22.0035 2.99963 22H3.19963L7.47963 21.14C7.69716 21.1139 7.91775 21.1449 8.11963 21.23C10.2581 22.15 12.6506 22.2951 14.8846 21.6403C17.1186 20.9854 19.0541 19.5716 20.3575 17.6426C21.6609 15.7137 22.2504 13.3904 22.0244 11.0734C21.7984 8.75638 20.7711 6.59081 19.1196 4.95002L19.0696 4.93002ZM7.99963 13C7.80185 13 7.60851 12.9414 7.44406 12.8315C7.27961 12.7216 7.15144 12.5654 7.07575 12.3827C7.00006 12.2 6.98026 11.9989 7.01884 11.8049C7.05743 11.611 7.15267 11.4328 7.29252 11.2929C7.43238 11.1531 7.61056 11.0578 7.80454 11.0192C7.99852 10.9807 8.19959 11.0005 8.38231 11.0761C8.56504 11.1518 8.72122 11.28 8.8311 11.4445C8.94098 11.6089 8.99963 11.8022 8.99963 12C8.99963 12.2652 8.89427 12.5196 8.70674 12.7071C8.5192 12.8947 8.26485 13 7.99963 13ZM11.9996 13C11.8018 13 11.6085 12.9414 11.4441 12.8315C11.2796 12.7216 11.1514 12.5654 11.0758 12.3827C11.0001 12.2 10.9803 11.9989 11.0188 11.8049C11.0574 11.611 11.1527 11.4328 11.2925 11.2929C11.4324 11.1531 11.6106 11.0578 11.8045 11.0192C11.9985 10.9807 12.1996 11.0005 12.3823 11.0761C12.565 11.1518 12.7212 11.28 12.8311 11.4445C12.941 11.6089 12.9996 11.8022 12.9996 12C12.9996 12.2652 12.8943 12.5196 12.7067 12.7071C12.5192 12.8947 12.2648 13 11.9996 13ZM15.9996 13C15.8018 13 15.6085 12.9414 15.4441 12.8315C15.2796 12.7216 15.1514 12.5654 15.0758 12.3827C15.0001 12.2 14.9803 11.9989 15.0188 11.8049C15.0574 11.611 15.1527 11.4328 15.2925 11.2929C15.4324 11.1531 15.6106 11.0578 15.8045 11.0192C15.9985 10.9807 16.1996 11.0005 16.3823 11.0761C16.565 11.1518 16.7212 11.28 16.8311 11.4445C16.941 11.6089 16.9996 11.8022 16.9996 12C16.9996 12.2652 16.8943 12.5196 16.7067 12.7071C16.5192 12.8947 16.2648 13 15.9996 13Z" fill="#50B577"/>
</g>
</g>
</g>
<defs>
<clipPath id="clip0_443_246">
<rect width="24" height="24" fill="white"/>
</clipPath>
</defs>
</svg>
