<svg width="22" height="19" viewBox="0 0 22 19" fill="none" xmlns="http://www.w3.org/2000/svg">
<path id="Vector" d="M22 9.5C22 14.7372 17.8391 19 12.7217 19C10.8326 19 9.01522 18.4154 7.46087 17.3436C7.03044 17.0269 6.91087 16.4423 7.22174 15.9795C7.53261 15.541 8.10652 15.4192 8.56087 15.7359C9.78043 16.5885 11.2391 17.0513 12.7217 17.0513C16.787 17.0513 20.087 13.6654 20.087 9.5C20.087 5.33462 16.787 1.94872 12.7217 1.94872C8.75217 1.94872 5.5 5.18846 5.35652 9.23205L7.58044 6.94231C7.96304 6.55256 8.56087 6.55256 8.94348 6.94231C9.32609 7.33205 9.32609 7.94103 8.94348 8.33077L5.28478 12.0577C5.09348 12.2526 4.85435 12.35 4.61522 12.35C4.35217 12.35 4.11304 12.2526 3.94565 12.0577L0.286957 8.30641C-0.0956522 7.91667 -0.0956522 7.30769 0.286957 6.91795C0.669565 6.52821 1.26739 6.52821 1.65 6.91795L3.46739 8.79359C3.80217 3.89744 7.81957 0 12.7217 0C17.8391 0 22 4.26282 22 9.5ZM12.6739 3.97051C12.1478 3.97051 11.7174 4.40897 11.7174 4.94487V9.5C11.7174 9.76795 11.837 10.0115 12.0283 10.1821L14.0848 12.2769C14.2761 12.4718 14.5152 12.5692 14.7783 12.5692C15.0174 12.5692 15.2804 12.4718 15.4478 12.2769C15.8304 11.8872 15.8065 11.2782 15.4239 10.8885L13.6304 9.0859V4.94487C13.6304 4.40897 13.2 3.97051 12.6739 3.97051Z" fill="black"/>
</svg>
